#!OML:ASF E:\emotionWalksFemale\Project 1\Capture day 1\Session 1\Female1.ASF
:FULLY-SPECIFIED
:DEGREES
2321
root 9.26801 15.5394 9.15179 -0.741344 7.17256 -2.14343
lowerback 8.57726 0.658505 0.757181
upperback 1.44084 0.94146 -0.153185
thorax -3.3002 0.459791 -0.690107
lowerneck -5.83244 -3.51151 -4.63265
upperneck 46.2394 -6.68061 5.68416
head 19.0968 -2.74626 2.54551
rclavicle 1.75427e-014 1.70955e-014
rhumerus -37.8583 0.237195 -83.221
rradius 30.9006
rwrist 18.1872
rhand -3.4927 -49.9188
rfingers 7.12502
rthumb 22.241 -78.659
lclavicle 1.75427e-014 1.70955e-014
lhumerus -33.1113 5.31586 83.232
lradius 36.5799
lwrist -12.7436
lhand -5.93747 -33.332
lfingers 7.12502
lthumb 19.8925 -4.33006
rfemur -8.61912 18.827 30.1539
rtibia 17.2734
rfoot -17.489 -27.1301
rtoes 8.43427
lfemur -10.0484 -2.27754 -18.8524
ltibia 60.9974
lfoot 13.0631 -8.55067
ltoes 9.56417
2322
root 9.25527 15.5348 9.20986 -0.858005 7.02723 -2.34803
lowerback 8.83469 0.709455 0.982732
upperback 1.37697 1.03412 -0.114236
thorax -3.50482 0.501816 -0.791718
lowerneck -5.6788 -3.52749 -4.77236
upperneck 46.3118 -6.75235 5.85166
head 19.1311 -2.78247 2.64807
rclavicle 1.13307e-014 1.19271e-015
rhumerus -37.7732 -0.0952592 -83.1305
rradius 30.8366
rwrist 18.1724
rhand -3.91937 -49.7277
rfingers 7.12502
rthumb 21.8314 -78.5163
lclavicle 1.13307e-014 1.19271e-015
lhumerus -33.1907 5.36678 83.2087
lradius 36.7426
lwrist -12.6013
lhand -5.97101 -33.5066
lfingers 7.12502
lthumb 19.8602 -4.50136
rfemur -8.2673 18.6244 30.5769
rtibia 17.2256
rfoot -17.3831 -26.8312
rtoes 9.44271
lfemur -10.5997 -2.01031 -18.5204
ltibia 62.0554
lfoot 14.0598 -8.23921
ltoes 8.10781
2323
root 9.24486 15.5305 9.26597 -0.835853 6.98755 -2.35731
lowerback 8.21034 0.665765 0.825161
upperback 1.82142 0.958172 0.00710947
thorax -2.70388 0.472641 -0.555825
lowerneck -5.91558 -3.49612 -4.8277
upperneck 46.0898 -6.62176 5.73812
head 19.0259 -2.74961 2.61051
rclavicle 2.62893e-014 -7.95139e-016
rhumerus -36.8216 -0.139989 -82.9966
rradius 30.7699
rwrist 18.0933
rhand -4.56652 -49.3767
rfingers 7.12502
rthumb 21.2099 -78.2363
lclavicle 2.62893e-014 -7.95139e-016
lhumerus -32.3799 5.85272 83.2956
lradius 36.6175
lwrist -12.6344
lhand -5.9245 -33.287
lfingers 7.12502
lthumb 19.9049 -4.28638
rfemur -8.03245 18.1706 30.7373
rtibia 17.1716
rfoot -17.2558 -26.4004
rtoes 9.84869
lfemur -11.227 -1.92719 -18.4508
ltibia 63.0443
lfoot 14.5898 -7.95239
ltoes 6.78692
2324
root 9.23725 15.5289 9.31993 -0.787187 6.99028 -2.25666
lowerback 8.32542 0.669437 0.821296
upperback 1.79098 0.962021 -0.0516694
thorax -2.79823 0.473839 -0.616656
lowerneck -5.92829 -3.51036 -4.76849
upperneck 46.22 -6.59401 5.57899
head 19.1013 -2.74658 2.53066
rclavicle -1.62755e-014 1.35174e-014
rhumerus -36.752 -0.563666 -82.9029
rradius 30.9437
rwrist 18.2528
rhand -5.0477 -49.4307
rfingers 7.12502
rthumb 20.7476 -78.3416
lclavicle -1.62755e-014 1.35174e-014
lhumerus -32.2855 5.96568 83.2345
lradius 36.4442
lwrist -12.7562
lhand -5.87949 -33.047
lfingers 7.12502
lthumb 19.9482 -4.05087
rfemur -7.77373 17.6463 30.7468
rtibia 17.0368
rfoot -17.1682 -25.9684
rtoes 9.99182
lfemur -11.7886 -1.94119 -18.5338
ltibia 63.9627
lfoot 14.905 -7.65839
ltoes 6.75914
2325
root 9.22792 15.5328 9.3812 -0.949779 6.87853 -2.25798
lowerback 8.51116 0.702189 0.889009
upperback 1.852 1.01265 -0.0609018
thorax -2.83608 0.49853 -0.671832
lowerneck -6.03778 -3.47173 -4.43394
upperneck 46.5341 -6.4279 5.12794
head 19.2824 -2.6717 2.28386
rclavicle -3.47873e-016 -4.37326e-015
rhumerus -36.6337 -0.737938 -82.8473
rradius 31.0393
rwrist 18.3867
rhand -4.96446 -49.7989
rfingers 7.12502
rthumb 20.8276 -78.701
lclavicle -3.47873e-016 -4.37326e-015
lhumerus -32.1538 6.03795 83.2464
lradius 36.3568
lwrist -12.6719
lhand -5.86312 -32.9499
lfingers 7.12502
lthumb 19.9639 -3.95537
rfemur -7.2693 17.2717 30.9498
rtibia 16.9188
rfoot -17.0436 -25.6328
rtoes 9.29587
lfemur -12.1239 -1.79396 -18.4701
ltibia 64.8373
lfoot 15.0192 -7.48402
ltoes 4.91191
2326
root 9.21524 15.5297 9.44428 -1.14205 6.70531 -2.37743
lowerback 8.72067 0.753301 0.984304
upperback 1.8941 1.09194 -0.032206
thorax -2.90615 0.537039 -0.707272
lowerneck -5.8938 -3.45679 -4.52704
upperneck 46.421 -6.45155 5.29569
head 19.1822 -2.68049 2.37821
rclavicle 7.85199e-015 7.55382e-015
rhumerus -36.5628 -0.660013 -82.8867
rradius 31.0837
rwrist 18.3022
rhand -4.89607 -49.9101
rfingers 7.12502
rthumb 20.8933 -78.805
lclavicle 7.85199e-015 7.55382e-015
lhumerus -32.1121 5.83479 83.2898
lradius 36.4552
lwrist -12.3481
lhand -5.97542 -33.0127
lfingers 7.12502
lthumb 19.856 -4.00695
rfemur -6.73778 17.0872 31.3249
rtibia 16.7983
rfoot -17.0284 -25.4216
rtoes 8.93764
lfemur -12.5961 -1.51201 -18.2456
ltibia 65.7422
lfoot 14.8256 -7.5497
ltoes -0.388446
2327
root 9.20308 15.5223 9.49592 -1.14857 6.59745 -2.46539
lowerback 8.8675 0.775989 1.00197
upperback 1.88437 1.12725 0.0250288
thorax -2.99785 0.553914 -0.664522
lowerneck -5.87215 -3.4312 -4.53631
upperneck 46.3943 -6.37607 5.22665
head 19.1457 -2.66045 2.3576
rclavicle -2.82026e-014 3.18055e-015
rhumerus -36.4142 -0.645804 -82.9036
rradius 31.05
rwrist 18.2596
rhand -5.01745 -49.8523
rfingers 7.12502
rthumb 20.7767 -78.76
lclavicle -2.82026e-014 3.18055e-015
lhumerus -31.934 5.92647 83.3386
lradius 36.3342
lwrist -12.3676
lhand -6.14191 -33.1444
lfingers 7.12502
lthumb 19.6959 -4.12219
rfemur -6.43008 17.0129 31.5945
rtibia 16.6033
rfoot -16.7491 -25.4146
rtoes 8.75034
lfemur -13.3354 -1.3357 -18.0743
ltibia 66.6581
lfoot 14.5377 -7.48461
ltoes -2.48763
2328
root 9.19023 15.5174 9.54337 -1.09616 6.54685 -2.50067
lowerback 9.01181 0.804497 0.982513
upperback 1.84256 1.16666 0.0683634
thorax -3.12181 0.572749 -0.616163
lowerneck -5.88906 -3.41089 -4.50165
upperneck 46.4497 -6.29609 5.101
head 19.1703 -2.63599 2.3045
rclavicle -2.21148e-014 -6.95746e-015
rhumerus -36.3328 -0.740479 -82.8812
rradius 31.0591
rwrist 18.2826
rhand -5.31181 -49.745
rfingers 7.12502
rthumb 20.4938 -78.6834
lclavicle -2.21148e-014 -6.95746e-015
lhumerus -31.78 6.12621 83.3907
lradius 36.2252
lwrist -12.5815
lhand -6.21545 -32.958
lfingers 7.12502
lthumb 19.6252 -3.92859
rfemur -6.22482 16.901 31.7695
rtibia 16.4297
rfoot -16.2783 -25.3967
rtoes 7.99104
lfemur -14.0397 -1.23064 -17.9544
ltibia 67.5383
lfoot 14.1283 -7.44196
ltoes -0.296642
2329
root 9.17723 15.5124 9.60003 -1.18034 6.49352 -2.63176
lowerback 9.27918 0.84498 1.12122
upperback 1.76576 1.2377 0.0758451
thorax -3.34577 0.604869 -0.700283
lowerneck -5.7888 -3.41941 -4.41995
upperneck 46.5441 -6.31957 5.06808
head 19.2031 -2.63587 2.27425
rclavicle 1.25483e-014 2.10712e-014
rhumerus -36.4916 -0.812196 -82.9432
rradius 31.1136
rwrist 18.1581
rhand -5.98559 -49.5528
rfingers 7.12502
rthumb 19.8462 -78.5595
lclavicle 1.25483e-014 2.10712e-014
lhumerus -31.9692 5.89197 83.4337
lradius 36.5221
lwrist -12.3821
lhand -6.10444 -32.5623
lfingers 7.12502
lthumb 19.732 -3.54381
rfemur -5.9193 16.7202 32.0838
rtibia 16.4201
rfoot -16.317 -25.1807
rtoes 8.76157
lfemur -14.5317 -1.09887 -17.7281
ltibia 68.3753
lfoot 11.8393 -7.5804
ltoes -6.18155
2330
root 9.16701 15.507 9.66046 -1.35881 6.41699 -2.80698
lowerback 8.98377 0.797314 1.14044
upperback 2.14728 1.1747 0.222225
thorax -2.79063 0.579403 -0.543101
lowerneck -6.00874 -3.37053 -4.5417
upperneck 46.4578 -6.20561 5.06854
head 19.2008 -2.60913 2.3097
rclavicle 1.635e-014 -1.43125e-014
rhumerus -35.8284 -0.5147 -83.0249
rradius 30.9196
rwrist 17.9187
rhand -6.37807 -49.4225
rfingers 7.12502
rthumb 19.4689 -78.4678
lclavicle 1.635e-014 -1.43125e-014
lhumerus -31.5787 5.99275 83.5993
lradius 36.829
lwrist -11.9428
lhand -5.79698 -32.3213
lfingers 7.12502
lthumb 20.0275 -3.33343
rfemur -5.51424 16.4856 32.4709
rtibia 16.4651
rfoot -16.4215 -24.9702
rtoes 9.0357
lfemur -14.8952 -0.980763 -17.4693
ltibia 69.1495
lfoot 9.7316 -7.82126
ltoes -7.70727
2331
root 9.15883 15.501 9.71243 -1.44451 6.35212 -2.85985
lowerback 9.26584 0.82567 1.28395
upperback 2.12266 1.2295 0.203404
thorax -2.96789 0.604308 -0.654605
lowerneck -5.98663 -3.37597 -4.64856
upperneck 46.5648 -6.22215 5.14073
head 19.2811 -2.62585 2.36734
rclavicle 5.04416e-015 -2.38542e-015
rhumerus -35.7979 -0.770333 -83.0319
rradius 30.8822
rwrist 18.0635
rhand -6.01999 -49.3968
rfingers 7.12502
rthumb 19.8131 -78.4069
lclavicle 5.04416e-015 -2.38542e-015
lhumerus -31.6753 5.77698 83.6413
lradius 37.0364
lwrist -11.7399
lhand -5.52405 -32.3262
lfingers 7.12502
lthumb 20.2898 -3.36598
rfemur -5.17378 16.1415 32.6877
rtibia 16.3885
rfoot -16.1706 -24.7726
rtoes 8.69954
lfemur -15.3541 -0.912325 -17.358
ltibia 69.8704
lfoot 7.8849 -8.11055
ltoes -6.67766
2332
root 9.14995 15.497 9.76102 -1.40554 6.2722 -2.93059
lowerback 9.38498 0.862067 1.37587
upperback 2.07686 1.28945 0.218237
thorax -3.07842 0.632321 -0.7006
lowerneck -5.94373 -3.35977 -4.63837
upperneck 46.6831 -6.15942 5.04597
head 19.3384 -2.61018 2.33428
rclavicle 2.74323e-014 -7.15625e-015
rhumerus -35.8358 -0.920394 -83.0078
rradius 31.0355
rwrist 18.301
rhand -5.40081 -49.6024
rfingers 7.12502
rthumb 20.4083 -78.5499
lclavicle 2.74323e-014 -7.15625e-015
lhumerus -31.7691 5.75569 83.6944
lradius 37.1076
lwrist -11.9154
lhand -5.56318 -32.4312
lfingers 7.12502
lthumb 20.2522 -3.46699
rfemur -4.97745 16.0299 32.8758
rtibia 16.2596
rfoot -16.0827 -24.6056
rtoes 9.71128
lfemur -16.0183 -0.850707 -17.2286
ltibia 70.5203
lfoot 6.13651 -8.40803
ltoes -8.63187
2333
root 9.13978 15.4932 9.8168 -1.38133 6.15064 -3.1238
lowerback 9.36278 0.902468 1.5314
upperback 2.07159 1.35916 0.258251
thorax -3.0674 0.66591 -0.754384
lowerneck -5.87601 -3.35449 -4.52277
upperneck 46.7472 -6.14483 4.95952
head 19.3506 -2.59522 2.27548
rclavicle 1.54555e-014 2.38542e-015
rhumerus -35.7877 -0.732177 -83.1158
rradius 31.0107
rwrist 18.1262
rhand -5.29351 -49.6773
rfingers 7.12502
rthumb 20.5114 -78.6138
lclavicle 1.54555e-014 2.38542e-015
lhumerus -31.7288 5.64756 83.7479
lradius 37.0979
lwrist -11.9215
lhand -5.69613 -32.3847
lfingers 7.12502
lthumb 20.1244 -3.40697
rfemur -4.8228 16.0109 33.2321
rtibia 16.2351
rfoot -15.87 -24.6159
rtoes 8.74994
lfemur -16.7379 -0.722324 -16.9586
ltibia 71.092
lfoot 4.25306 -8.49375
ltoes -13.7449
2334
root 9.13109 15.4891 9.87421 -1.37851 6.07758 -3.18881
lowerback 9.2304 0.918251 1.5157
upperback 2.17104 1.3762 0.291379
thorax -2.89184 0.67665 -0.709437
lowerneck -5.83093 -3.34802 -4.55146
upperneck 46.6603 -6.15921 5.03727
head 19.2851 -2.59806 2.3143
rclavicle 3.72721e-015 6.16232e-015
rhumerus -35.5271 -0.255607 -83.3042
rradius 30.7957
rwrist 17.6377
rhand -5.67592 -49.4611
rfingers 7.12502
rthumb 20.1439 -78.4367
lclavicle 3.72721e-015 6.16232e-015
lhumerus -31.5901 5.63589 83.8086
lradius 37.1979
lwrist -11.8933
lhand -5.60781 -32.0094
lfingers 7.12502
lthumb 20.2093 -3.04063
rfemur -4.67943 15.5672 33.4923
rtibia 16.3344
rfoot -14.8628 -24.7384
rtoes 4.13572
lfemur -17.3778 -0.691066 -16.8578
ltibia 71.5789
lfoot 2.55661 -8.01088
ltoes -16.1837
2335
root 9.12534 15.4845 9.92425 -1.31677 6.10144 -3.07387
lowerback 9.13909 0.871296 1.34334
upperback 2.23693 1.29558 0.296949
thorax -2.77891 0.638864 -0.5952
lowerneck -5.79129 -3.31058 -4.68312
upperneck 46.6425 -6.07125 5.043
head 19.26 -2.58733 2.35586
rclavicle -1.14301e-015 -7.35503e-015
rhumerus -35.3308 0.193259 -83.457
rradius 30.7483
rwrist 17.4264
rhand -5.66295 -49.3368
rfingers 7.12502
rthumb 20.1563 -78.3111
lclavicle -1.14301e-015 -7.35503e-015
lhumerus -31.7036 5.82388 83.8369
lradius 37.5378
lwrist -11.8902
lhand -5.33024 -31.7117
lfingers 7.12502
lthumb 20.4761 -2.77137
rfemur -4.63357 15.0386 33.4905
rtibia 16.5195
rfoot -14.0246 -24.6952
rtoes 1.1452
lfemur -18.0019 -0.796551 -16.9812
ltibia 71.9869
lfoot 1.20741 -7.26324
ltoes -14.8655
